<svg xmlns="http://www.w3.org/2000/svg" width="512" height="512" viewBox="0 0 512 512">
  <defs><linearGradient id="g" x1="0" x2="1" y1="0" y2="1"><stop stop-color="#38bdf8"/><stop offset="1" stop-color="#22c55e"/></linearGradient></defs>
  <rect width="512" height="512" rx="112" fill="#07111f"/>
  <circle cx="256" cy="256" r="178" fill="url(#g)" opacity=".18"/>
  <path d="M249 136v84c-30-59-77-70-113-38-31 28-42 91-29 144 12 50 47 79 88 77 28-2 49-18 58-44V136h-4Zm14 0v223c9 26 30 42 58 44 41 2 76-27 88-77 13-53 2-116-29-144-36-32-83-21-113 38v-84h-4Z" fill="#eaf2ff" opacity=".92"/>
  <text x="256" y="445" font-family="Arial, sans-serif" font-size="54" font-weight="700" fill="#eaf2ff" text-anchor="middle">ICU</text>
</svg>